<svg id="Layer_1" data-name="Layer 1" xmlns="http://www.w3.org/2000/svg" viewBox="0 0 128 128"><title>Artboard 4</title><path d="M35.053,75.1a7.907,7.907,0,0,0,3.711,2.072V97.1a1.854,1.854,0,0,0,3.708,0V77.072a7.853,7.853,0,0,0,3.7-1.861c.04-.034.078-.069.116-.106a7.862,7.862,0,0,0,2.314-5.569V56.383h3.483a7.854,7.854,0,0,0,5.562-2.314l.007-.007A7.853,7.853,0,0,0,59.972,48.5V36.929a7.859,7.859,0,0,0-2.314-5.568l0,0a7.865,7.865,0,0,0-5.565-2.318H46.4A13.7,13.7,0,0,0,32.735,42.714h0V69.536A7.861,7.861,0,0,0,35.049,75.1ZM55.039,33.978l0,0a4.163,4.163,0,0,1,1.228,2.947V48.5a3.948,3.948,0,0,1-2.32,3.69V33.238a4.175,4.175,0,0,1,1.093.737Zm-18.6,8.736a9.994,9.994,0,0,1,9.96-9.96h3.832V52.675H46.4a9.994,9.994,0,0,1-9.96-9.96Zm2.2,11.223c.218.151.457.269.683.407a13.57,13.57,0,0,0,1.476.8c.289.132.59.233.889.344a13.46,13.46,0,0,0,1.5.467c.328.08.658.143.994.2.24.04.467.115.712.142V69.536a4.163,4.163,0,0,1-1.228,2.947c-.027.027-.053.054-.078.083a4.153,4.153,0,0,1-2.869,1.145h-.105a4.158,4.158,0,0,1-2.947-1.221l0,0,0,0a4.163,4.163,0,0,1-1.228-2.947V52.053c.1.107.2.213.306.316A13.828,13.828,0,0,0,38.647,53.937Z"/><path d="M70.349,54.068a7.854,7.854,0,0,0,5.562,2.314h3.483V69.536A7.861,7.861,0,0,0,81.709,75.1c.037.038.076.073.116.106a7.853,7.853,0,0,0,3.7,1.861V97.1a1.854,1.854,0,0,0,3.708,0V77.173A7.907,7.907,0,0,0,92.947,75.1l0,0a7.861,7.861,0,0,0,2.315-5.569V42.714h0A13.7,13.7,0,0,0,81.6,29.046H75.911a7.865,7.865,0,0,0-5.565,2.318l0,0a7.86,7.86,0,0,0-2.314,5.568V48.5a7.854,7.854,0,0,0,2.314,5.562Zm21.208-2.015V69.536a4.162,4.162,0,0,1-1.228,2.947l0,0,0,0a4.156,4.156,0,0,1-2.947,1.221h-.105a4.153,4.153,0,0,1-2.869-1.145c-.025-.028-.051-.056-.078-.083A4.163,4.163,0,0,1,83.1,69.536V56.3c.244-.027.472-.1.712-.142.336-.056.666-.118.993-.2a13.44,13.44,0,0,0,1.5-.467c.3-.111.6-.213.888-.344a13.535,13.535,0,0,0,1.476-.8c.227-.139.466-.256.684-.408a13.825,13.825,0,0,0,1.9-1.568C91.355,52.266,91.457,52.16,91.557,52.053ZM88.63,35.681a9.929,9.929,0,0,1,2.927,7.033h0a9.994,9.994,0,0,1-9.96,9.96H77.765V32.754H81.6A9.928,9.928,0,0,1,88.63,35.681ZM71.736,36.929a4.163,4.163,0,0,1,1.228-2.947l0,0,0,0a4.175,4.175,0,0,1,1.093-.737V52.19a4.227,4.227,0,0,1-1.1-.739A4.173,4.173,0,0,1,71.736,48.5Z"/></svg>