<?xml version="1.0" encoding="utf-8"?>
<!-- Generator: Adobe Illustrator 27.2.0, SVG Export Plug-In . SVG Version: 6.00 Build 0)  -->
<svg version="1.0" id="Layer_1" xmlns="http://www.w3.org/2000/svg" xmlns:xlink="http://www.w3.org/1999/xlink" x="0px" y="0px"
	 viewBox="0 0 64 64" style="enable-background:new 0 0 64 64;" xml:space="preserve">
<style type="text/css">
	.st0{fill:none;stroke:#231F20;stroke-width:2;stroke-linecap:round;stroke-linejoin:round;stroke-miterlimit:10;}
</style>
<g>
	<path class="st0" d="M26.15,51.52L12.48,37.85c-3.23-3.23-3.23-8.47,0-11.7l13.67-13.67c3.23-3.23,8.47-3.23,11.7,0l13.67,13.67
		c3.23,3.23,3.23,8.47,0,11.7L37.85,51.52C34.62,54.75,29.38,54.75,26.15,51.52z"/>
	<polyline class="st0" points="36.73,11.54 40.31,7.96 56.04,23.69 52.46,27.27 	"/>
	<path class="st0" d="M28.26,48.55L15.45,35.74c-2.07-2.07-2.07-5.42,0-7.48l12.81-12.81c2.07-2.07,5.42-2.07,7.48,0l12.81,12.81
		c2.07,2.07,2.07,5.42,0,7.48L35.74,48.55C33.68,50.62,30.33,50.62,28.26,48.55z"/>
	<polyline class="st0" points="25.68,25.66 32.02,32 36.05,27.97 	"/>
	<line class="st0" x1="40.31" y1="7.96" x2="45.62" y2="2.65"/>
	<line class="st0" x1="56.04" y1="23.69" x2="61.35" y2="18.38"/>
	<polyline class="st0" points="27.27,52.46 23.69,56.04 7.96,40.31 11.54,36.73 	"/>
	<line class="st0" x1="23.69" y1="56.04" x2="18.38" y2="61.35"/>
	<line class="st0" x1="7.96" y1="40.31" x2="2.65" y2="45.62"/>
</g>
</svg>
